<svg xmlns="http://www.w3.org/2000/svg" viewBox="0 0 463.09 295.32"><defs><style>.cls-1,.cls-8{fill:#b0cdff;}.cls-10,.cls-2,.cls-4{fill:#0c58a3;}.cls-3{fill:#fff;}.cls-4{font-size:17.87px;font-family:Montserrat-SemiBoldItalic, Montserrat SemiBoldItalic;font-weight:600;font-style:italic;letter-spacing:0.2em;}.cls-5{letter-spacing:0.2em;}.cls-6{letter-spacing:0.24em;}.cls-7{letter-spacing:0.17em;}.cls-10,.cls-8{font-size:102.5px;font-family:AirAmerica-Regular, AirAmerica Regular;}.cls-9{letter-spacing:0.02em;}</style></defs><g id="OBJECTS"><path class="cls-1" d="M268.64,212c-17.28-.61-31.4-9.82-37.69-24.58l-.64-1.49h76.46c25.67,0,48.44,9.36,64.24,26.07Z" transform="translate(-161.06 -95.27)"/><path class="cls-2" d="M353.21,198H259.53c-11.63-.41-21.82-4.73-29.17-12h-.05l.64,1.49c6.29,14.76,20.41,24,37.69,24.58H371A79.53,79.53,0,0,0,353.21,198Z" transform="translate(-161.06 -95.27)"/><path class="cls-3" d="M232,189.65a43.44,43.44,0,0,0,27.18,10.18h97.08c-1-.64-2-1.26-3-1.86H259.53c-11.63-.41-21.82-4.73-29.17-12h-.05l.64,1.49C231.27,188.2,231.63,188.93,232,189.65Z" transform="translate(-161.06 -95.27)"/><path class="cls-2" d="M191.14,220.05c32.52,41.05,68,46.82,113.54,47.2l135.59,1.15-1.11-2.66c-10.93-26.28-35.84-42.82-66.47-44.15l-97.31-.83c-30.8-.26-59.41-8.47-83.07-23.83l-31.25-20.29S183,209.72,191.14,220.05Z" transform="translate(-161.06 -95.27)"/><path class="cls-1" d="M161.06,176.64s3.06,4.63,7.33,11c3.9,5.59,7.52,10.65,10,13.7,32.52,41.06,68,46.82,113.54,47.21l138,1.17c-13-16.84-33.36-27.07-57.17-28.1l-97.31-.83c-30.8-.26-59.41-8.47-83.07-23.83Z" transform="translate(-161.06 -95.27)"/><path class="cls-3" d="M292.39,246.07c-45.54-.39-81-6.16-113.54-47.21-2.43-3.06-6-8.11-9.95-13.7l-4.07-6.07-3.77-2.45s3.06,4.63,7.33,11c3.9,5.59,7.52,10.65,10,13.7,32.52,41.06,68,46.82,113.54,47.21l138,1.17c-.65-.85-1.34-1.66-2-2.48Z" transform="translate(-161.06 -95.27)"/><text class="cls-4" transform="translate(228.65 290.85)">DO<tspan class="cls-5" x="31.37" y="0">N</tspan><tspan class="cls-6" x="46.61" y="0">’</tspan><tspan x="54.58" y="0">T S</tspan><tspan class="cls-7" x="86.79" y="0">T</tspan><tspan x="98.77" y="0">OP</tspan></text><text class="cls-8" transform="translate(16 269.1)">spo<tspan class="cls-9" x="155.18" y="0">r</tspan><tspan x="191.15" y="0">t</tspan></text><text class="cls-10" transform="translate(241.08 269.1)">Shop</text><path class="cls-1" d="M534.07,241c-23.65-2.59-34.78-18.05-44.67-37.74-9.82-19.54-18-42.57-12.71-64.52.19-.81-.56-1.43-1.25-1.58-6.84-1.51-18.58-2.29-24.54,1.9a14.51,14.51,0,0,0-5.89,8.43c-1,3.38,2.55,6.44.68,6-6.84-1.51-13.26-4.93-18.93-8.94-7.15-5-29.49-30.13-17.66-38,2.7-1.79,7.67-7,4.45-10.36-2.51-2.63-8.57.9-10.85,2-22.25,10.76-41.79,31.4-54.76,52q-2.79,3.62-5.59,7.24a1,1,0,0,0-.12.23s-.05.05-.07.09c-6.28,12.69,8.26,24.26,17,31.1,17.54,13.76,38,23.26,56.49,35.52,24.62,16.28,43.95,38.38,73.44,46.15,21.07,5.55,62.56,1.39,69.74-20.21C561.54,242.21,537.17,241.32,534.07,241Zm-58.75,21.9c-22.55-9.38-39.53-28.55-59.63-41.85-14.17-9.36-29.32-17.16-43.55-26.44-9.73-6.35-34.33-21-27.42-35.51l3.74-4.83c3.76,9.73,19.11,17.73,26.24,22,13.44,8,27.68,14.28,40.55,23.28,10.87,7.6,20.23,17.07,29.4,26.59,8.66,9,16.86,19.92,28.07,25.94,10.91,5.85,22.55,8.07,34.78,9.3,17.36,1.74,44-6,46.25-6.53C534,269.69,496.87,271.85,475.32,262.89Z" transform="translate(-161.06 -95.27)"/><path class="cls-2" d="M474.58,266.63c-22.66-9.13-42.29-32.29-62.4-45.59-14.16-9.36-29.32-17.16-43.55-26.44-9.73-6.35-34.32-21-27.41-35.51l3.74-4.83c3.75,9.73,19.1,17.73,26.23,22,13.44,8,27.68,14.28,40.56,23.28,10.87,7.6,20.23,17.07,29.39,26.59,8.67,9,16.87,19.92,28.08,25.94,10.91,5.85,25,11.63,43.91,11,21.3-.69,42-8.93,44.27-9.42C542,278.44,496.72,275.53,474.58,266.63Z" transform="translate(-161.06 -95.27)"/><path class="cls-3" d="M398.79,111.77s.61,19.12,15.63,31.74S444.25,157,444.25,157s-11.36,1.36-28.19-9.45S396.42,117.2,398.79,111.77Z" transform="translate(-161.06 -95.27)"/><polygon class="cls-2" points="125.39 283.4 220.16 283.4 218.16 286.96 123.39 286.96 125.39 283.4"/></g></svg>